# xmcd CD database file
#
# Track frame offsets:
#	150
#	38833
#	57775
#	75618
#	100287
#	117252
#	163258
#	195547
#
# Disc length: 2798 seconds
#
# Revision: 0
# Processed by: cddbd v1.5.1PL0 Copyright (c) Steve Scherf et al.
# Submitted via: CDex 1.51
#
DISCID=620aec08
DTITLE=Anomoanon, The - Joji
DYEAR=2004
DGENRE=Americana
TTITLE0=Down And Brown
TTITLE1=Leap Alone
TTITLE2=Mr. Train
TTITLE3=Green Sea
TTITLE4=After Than Before
TTITLE5=Wedding Song
TTITLE6=Nowhere
TTITLE7=Bird Child
EXTD=YEAR: 2004
EXTT0=
EXTT1=
EXTT2=
EXTT3=
EXTT4=
EXTT5=
EXTT6=
EXTT7=
PLAYORDER=
